<svg width="37" height="42" viewBox="0 0 37 42" fill="none" xmlns="http://www.w3.org/2000/svg">
<path d="M3.95166 2.49219C4.97065 2.04647 6.16499 2.20195 6.979 2.87891L7.01123 2.90527L7.04639 2.92578L33.5903 18.4648L33.812 18.7012L33.8257 18.7148C34.4191 19.3007 34.7514 20.1448 34.7515 21.0605C34.7515 21.9646 34.4266 22.7636 33.812 23.4209L33.5923 23.6533L7.04834 39.0801L7.02783 39.0918L7.00928 39.1055C6.42941 39.5189 5.77572 39.7598 5.14893 39.7598C4.74219 39.7598 4.32273 39.6615 3.93896 39.5078C2.80824 39.0193 2.04736 37.7839 2.04736 36.4082V5.59863C2.04736 4.21918 2.81203 2.97996 3.94775 2.49414L3.95166 2.49219Z" fill="#F9EDE2" stroke="#F9EFE4"/>
<path d="M3.28864 40.7016C3.73517 40.8806 4.2376 41 4.74004 41C5.52155 41 6.30307 40.7016 6.97286 40.224L34.6045 24.1671L34.8836 23.8686C35.6093 23.0927 36 22.1376 36 21.0632C36 19.9888 35.6093 18.974 34.8836 18.2577L34.6045 17.9593L6.97286 1.78291C5.96808 0.947265 4.51668 0.7682 3.28864 1.3054C1.89306 1.90229 1 3.3946 1 5.0063V37.0008C1 38.6125 1.89306 40.1047 3.28864 40.7016Z" stroke="#F9EFE4" stroke-width="2" stroke-linejoin="round"/>
</svg>
